<svg xmlns="http://www.w3.org/2000/svg" viewBox="0 0 1600 900">
  <defs>
    <linearGradient id="thanks-bg" x1="0" y1="1" x2="1" y2="0">
      <stop offset="0" stop-color="#040507"/>
      <stop offset="0.55" stop-color="#091b29"/>
      <stop offset="1" stop-color="#07090c"/>
    </linearGradient>
    <radialGradient id="thanks-opening" cx="77%" cy="48%" r="48%">
      <stop offset="0" stop-color="#ddd7cd" stop-opacity="0.38"/>
      <stop offset="0.2" stop-color="#123e46" stop-opacity="0.78"/>
      <stop offset="0.66" stop-color="#0d2835" stop-opacity="0.28"/>
      <stop offset="1" stop-color="#040507" stop-opacity="0"/>
    </radialGradient>
    <linearGradient id="thanks-wine" x1="0" y1="0" x2="1" y2="0">
      <stop offset="0" stop-color="#44131d" stop-opacity="0"/>
      <stop offset="1" stop-color="#87263a" stop-opacity="0.58"/>
    </linearGradient>
    <linearGradient id="thanks-ray" x1="0" y1="0" x2="1" y2="0">
      <stop offset="0" stop-color="#f1ede5" stop-opacity="0"/>
      <stop offset="0.72" stop-color="#f1ede5" stop-opacity="0.18"/>
      <stop offset="1" stop-color="#bca16c" stop-opacity="0.04"/>
    </linearGradient>
  </defs>
  <rect width="1600" height="900" fill="url(#thanks-bg)"/>
  <rect width="1600" height="900" fill="url(#thanks-opening)"/>
  <path d="M0 642 610 176h252L192 900H0Z" fill="#11151a" fill-opacity="0.68"/>
  <path d="M0 0h452L738 346 0 244Z" fill="url(#thanks-wine)"/>
  <path d="M752 0h520l-124 900H624Z" fill="url(#thanks-ray)"/>
  <path d="M1184 112h246v676h-246Z" fill="#f1ede5" fill-opacity="0.035" stroke="#bca16c" stroke-opacity="0.42" stroke-width="2"/>
  <path d="M1228 154h158v592h-158Z" fill="#07090c" fill-opacity="0.28" stroke="#f1ede5" stroke-opacity="0.12"/>
  <path d="M1276 154v592" stroke="#f1ede5" stroke-opacity="0.15" stroke-width="2"/>
  <g fill="none" stroke="#bca16c" stroke-opacity="0.34" stroke-width="2">
    <path d="M78 102h286M78 102v242"/>
    <path d="M78 798h454"/>
    <path d="M1522 98h-222M1522 98v250"/>
    <path d="M1522 802h-312M1522 802V586"/>
    <path d="M452 0 88 698"/>
    <path d="m1006 900 594-514"/>
  </g>
  <g fill="#bca16c" fill-opacity="0.72">
    <circle cx="78" cy="344" r="5"/>
    <circle cx="532" cy="798" r="4"/>
    <circle cx="1300" cy="98" r="4"/>
    <circle cx="1210" cy="802" r="5"/>
  </g>
  <g fill="#f1ede5" fill-opacity="0.25">
    <circle cx="894" cy="198" r="2"/>
    <circle cx="934" cy="238" r="2"/>
    <circle cx="876" cy="276" r="2"/>
    <circle cx="1022" cy="154" r="2"/>
    <circle cx="1106" cy="256" r="2"/>
  </g>
</svg>
